<svg xmlns="http://www.w3.org/2000/svg" viewBox="0 0 480 401.6" enable-background="new 0 0 480 401.6"><style type="text/css">.st0{fill:#FFFFFF;}</style><path class="st0" d="M392.1 0l-15.3 15.3 63.1 61.2h-114.8c-5.7-44-42.1-76.5-86-76.5s-80.4 32.5-86.1 76.5h-114.8l61.2-61.2-13.3-15.3-86.1 86.1 86.1 86.1 15.3-15.3-63.2-61.3h114.8v306h172.1v-306h114.8l-61.2 61.2 15.3 15.3 86-86-87.9-86.1zm-105.2 267.8h-95.6v-19.1h95.6v19.1zm0-38.3h-95.6v-19.1h95.6v19.1zm0-76.5h-95.6v-66.9c0-26.8 21-47.8 47.8-47.8 26.8 0 47.8 21 47.8 47.8v66.9z"/></svg>