<svg xmlns="http://www.w3.org/2000/svg" viewBox="0 0 512 213.3" enable-background="new 0 0 512 213.3"><style type="text/css">.st0{fill:#FFFFFF;}</style><path class="st0" d="M230.4 8.5c-4.7 0-8.5 3.8-8.5 8.5v179.2c0 4.7 3.8 8.5 8.5 8.5s8.5-3.8 8.5-8.5v-179.1c0-4.8-3.8-8.6-8.5-8.6zM281.6 8.5c-4.7 0-8.5 3.8-8.5 8.5v179.2c0 4.7 3.8 8.5 8.5 8.5s8.5-3.8 8.5-8.5v-179.1c0-4.8-3.8-8.6-8.5-8.6zM510 105.5l-85.3-102.4c-2.3-2.8-6.1-3.8-9.5-2.6-3.4 1.2-5.6 4.4-5.6 8v51.2h-85.3c-4.7 0-8.5 3.8-8.5 8.5v76.8c0 4.7 3.8 8.5 8.5 8.5h85.3v51.2c0 3.5 2.2 6.7 5.5 8 1 .4 2 .6 3.1.6 2.4 0 4.7-1 6.3-2.8l85.3-93.9c2.9-3.1 3-7.9.2-11.1zM187.7 59.7h-85.3v-51.2c0-3.6-2.3-6.8-5.6-8-3.4-1.2-7.2-.2-9.5 2.6l-85.3 102.4c-2.7 3.3-2.6 8.1.2 11.2l85.3 93.9c1.7 1.8 4 2.8 6.3 2.8 1 0 2.1-.2 3.1-.6 3.3-1.3 5.5-4.4 5.5-8v-51.2h85.3c4.7 0 8.5-3.8 8.5-8.5v-76.8c.1-4.8-3.8-8.6-8.5-8.6z"/></svg>