<svg xmlns="http://www.w3.org/2000/svg" width="490" height="490" viewBox="0 0 490 490" enable-background="new 0 0 490 490"><style type="text/css">.st0{fill:#0D2849;}</style><path class="st0" d="M484 455.2l-117.8-117.8c29.2-35.6 46.8-81.2 46.8-130.9 0-114-92.5-206.5-206.5-206.5-114.1 0-206.5 92.5-206.5 206.5s92.4 206.5 206.5 206.5c49.7 0 95.2-17.5 130.8-46.7l117.8 117.7c8 8 20.9 8 28.9 0 8-7.9 8-20.9 0-28.8zm-277.5-83.3c-91.3 0-165.5-74.2-165.5-165.4s74.2-165.5 165.5-165.5c91.2 0 165.5 74.3 165.5 165.5s-74.3 165.4-165.5 165.4z"/></svg>
